# xmcd
#
# Track frame offsets:
#	150
#	17444
#	29092
#	43676
#	62872
#	78388
#	93120
#	108374
#	122577
#	141173
#	162106
#	176373
#	193111
#	207298
#
# Disc length: 3021 seconds
#
# Revision: 1
# Processed by: cddbd v1.4PL0 Copyright (c) Steve Scherf et al.
# Submitted via: audiograbber 1.81.03
#
DISCID=b60bcb0e
DTITLE=Varios - Clube da Viola
DYEAR=2003
DGENRE=Setanejo
TTITLE0=Mais Que um Estilo,uma Paixão
TTITLE1=Um Tiquim
TTITLE2=Mexe Com Isso Não
TTITLE3=Palavras ao Vento
TTITLE4=Telefone Mudo
TTITLE5=Escorpião
TTITLE6=Brincando Com Fogo
TTITLE7=Tô Querendo Amor
TTITLE8=Pra Sempre em Meus Braços
TTITLE9=Sertanejo de Coração
TTITLE10=Pele Com Pele
TTITLE11=Toque em Meu Corpo
TTITLE12=Tô Numa Boa Com a Patroa
TTITLE13=Vestido de Seda
EXTD=
EXTT0=
EXTT1=
EXTT2=
EXTT3=
EXTT4=
EXTT5=
EXTT6=
EXTT7=
EXTT8=
EXTT9=
EXTT10=
EXTT11=
EXTT12=
EXTT13=
PLAYORDER=
